<?xml version="1.0" encoding="UTF-8" standalone="no"?>
<!-- Uploaded to: SVG Repo, www.svgrepo.com, Transformed by: SVG Repo Mixer Tools -->

<svg
   height="419.30383"
   width="666.65344"
   version="1.1"
   id="Layer_1"
   viewBox="-50.35 -50.35 503.46502 316.66349"
   xml:space="preserve"
   fill="#000000"
   xmlns:xlink="http://www.w3.org/1999/xlink"
   xmlns="http://www.w3.org/2000/svg"
   xmlns:svg="http://www.w3.org/2000/svg"><defs
   id="defs6"><clipPath
     clipPathUnits="userSpaceOnUse"
     id="clipPath3"><use
       x="0"
       y="0"
       xlink:href="#g2"
       id="use3" /></clipPath></defs>





<g
   transform="translate(-49.349998,-288.111)"
   id="g5"> <path
   style="fill:#80d6fa"
   d="m 88.6,327.362 v 85.333 H 20.333 c -9.387,0 -17.067,-7.68 -17.067,-17.067 v -51.2 c 0,-9.387 7.68,-17.067 17.067,-17.067 H 54.466 88.6 Z m 375.467,0 v 85.333 h -51.2 V 327.362 H 447 Z m -102.4,0 v 85.333 H 225.133 V 327.362 H 344.6 Z m -256,0 h 119.467 v 85.333 H 191 122.733 88.6 v -85.333 z"
   id="path1" /> <path
   style="fill:#ffd0a1"
   d="m 122.733,412.695 v 85.333 H 37.4 c -9.387,0 -17.067,-7.68 -17.067,-17.067 V 412.694 H 88.6 122.733 Z m 358.4,8.534 v 59.733 c 0,9.387 -7.68,17.067 -17.067,17.067 H 191 v -85.333 h 34.133 136.533 v 51.2 l 25.6,-17.067 25.6,17.067 v -51.2 h 51.2 8.533 c 0.001,-0.001 8.534,-0.001 8.534,8.533 z m -324.266,76.8 H 122.734 V 412.696 H 191 v 85.333 z"
   id="path2" /> <polygon
   style="fill:#ff7474"
   points="412.867,463.895 387.267,446.829 361.667,463.895 361.667,412.695 361.667,327.362 412.867,327.362 412.867,412.695 "
   id="polygon2" /> <path
   style="fill:#f2edda"
   d="m 447,242.029 v 85.333 h -34.133 -51.2 -17.067 v -85.333 z m -341.333,0 v 85.333 H 88.6 54.467 v -68.267 c 0,-9.387 7.68,-17.067 17.067,-17.067 h 34.133 z M 498.2,259.095 v 59.733 c 0,8.533 -8.533,8.533 -8.533,8.533 H 464.067 447 v -85.333 h 34.133 c 9.387,0.001 17.067,7.68 17.067,17.067 z M 344.6,242.029 v 85.333 H 225.133 105.667 v -85.333 z"
   id="path3" />   </g><g
   id="g3"
   clip-path="url(#clipPath3)"
   transform="translate(-50.349998,-289.111)"><g
     id="g2"><path
       style="fill:none;fill-opacity:1;stroke:#000000;stroke-width:9.83589;stroke-dasharray:none;stroke-opacity:1"
       d="M 465.067,503.295 H 38.4 c -11.947,0 -21.333,-9.387 -21.333,-21.333 v -34.133 c 0,-2.56 1.707,-4.267 4.267,-4.267 2.56,0 4.267,1.707 4.267,4.267 v 34.133 c 0,6.827 5.973,12.8 12.8,12.8 h 81.067 v -46.933 c 0,-2.56 1.707,-4.267 4.267,-4.267 2.56,0 4.267,1.707 4.267,4.267 v 46.933 h 25.6 v -46.933 c 0,-2.56 1.707,-4.267 4.267,-4.267 2.56,0 4.267,1.707 4.267,4.267 v 46.933 h 25.6 v -46.933 c 0,-2.56 1.707,-4.267 4.267,-4.267 2.56,0 4.267,1.707 4.267,4.267 v 46.933 h 268.8 c 6.827,0 12.8,-5.973 12.8,-12.8 v -59.733 c 0,-3.413 -2.56,-4.267 -4.267,-4.267 H 448 c -2.56,0 -4.267,-1.707 -4.267,-4.267 0,-2.56 1.707,-4.267 4.267,-4.267 h 12.8 v -81.067 c 0,-2.56 1.707,-4.267 4.267,-4.267 h 25.6 c 1.707,0 4.267,-0.853 4.267,-4.267 v -59.733 c 0,-6.827 -5.973,-12.8 -12.8,-12.8 h -29.867 v 46.933 c 0,2.56 -1.707,4.267 -4.267,4.267 -2.56,0 -4.267,-1.707 -4.267,-4.267 v -46.933 h -93.867 v 46.933 c 0,2.56 -1.707,4.267 -4.267,4.267 -2.56,0 -4.267,-1.707 -4.267,-4.267 v -46.933 h -230.4 v 46.933 c 0,2.56 -1.707,4.267 -4.267,4.267 -2.56,0 -4.267,-1.707 -4.267,-4.267 V 247.294 H 72.533 c -6.827,0 -12.8,5.973 -12.8,12.8 v 34.133 c 0,2.56 -1.707,4.267 -4.267,4.267 -2.56,0 -4.267,-1.707 -4.267,-4.267 v -34.133 c 0,-11.947 9.387,-21.333 21.333,-21.333 h 409.6 c 11.947,0 21.333,9.387 21.333,21.333 v 59.733 c 0,9.387 -7.68,12.8 -12.8,12.8 h -21.333 v 76.8 h 4.267 c 5.12,0 12.8,3.413 12.8,12.8 v 59.733 c 10e-4,11.948 -9.386,21.335 -21.332,21.335 z m -51.2,-34.133 c -0.853,0 -1.707,0 -2.56,-0.853 l -23.04,-15.36 -23.04,15.36 c -1.707,0.853 -3.413,0.853 -4.267,0 -1.707,-0.853 -2.56,-2.56 -2.56,-3.413 V 332.629 h -128 v 76.8 h 98.133 c 2.56,0 4.267,1.707 4.267,4.267 0,2.56 -1.707,4.267 -4.267,4.267 H 21.333 C 9.387,417.962 0,408.575 0,396.629 v -51.2 c 0,-11.947 9.387,-21.333 21.333,-21.333 h 409.6 c 2.56,0 4.267,1.707 4.267,4.267 0,2.56 -1.707,4.267 -4.267,4.267 h -12.8 v 132.267 c 0,1.707 -0.853,3.413 -2.56,3.413 0,0.852 -0.853,0.852 -1.706,0.852 z m -25.6,-25.6 c 0.853,0 1.707,0 2.56,0.853 l 18.773,12.8 V 332.629 h -42.667 v 124.587 l 18.773,-12.8 c 0.854,-0.854 1.707,-0.854 2.561,-0.854 z m -294.4,-34.133 h 128 v -76.8 h -128 z m -72.534,-76.8 c -7.68,0 -12.8,5.12 -12.8,12.8 v 51.2 c 0,6.827 5.973,12.8 12.8,12.8 h 64 v -76.8 z m 153.6,51.2 c -2.56,0 -4.267,-1.707 -4.267,-4.267 v -17.067 c 0,-2.56 1.707,-4.267 4.267,-4.267 2.56,0 4.267,1.707 4.267,4.267 v 17.067 c 0,2.56 -1.707,4.267 -4.267,4.267 z m -34.133,0 c -2.56,0 -4.267,-1.707 -4.267,-4.267 v -17.067 c 0,-2.56 1.707,-4.267 4.267,-4.267 2.56,0 4.267,1.707 4.267,4.267 v 17.067 c 0,2.56 -1.707,4.267 -4.267,4.267 z"
       id="path6" /></g></g>

<text
   xml:space="preserve"
   style="font-size:50.3475px;font-family:Papyrus;-inkscape-font-specification:'Papyrus, Normal';text-align:center;letter-spacing:1.51042px;writing-mode:lr-tb;direction:ltr;text-anchor:middle;fill:#000000;fill-opacity:1;fill-rule:evenodd;stroke:#333333;stroke-width:0.755212"
   x="214.39619"
   y="265.09753"
   id="text7"><tspan
     id="tspan7"
     x="215.15141"
     y="265.09753"
     style="font-style:normal;font-variant:normal;font-weight:bold;font-stretch:normal;font-size:55.3823px;font-family:Sans;-inkscape-font-specification:'Sans, Bold';font-variant-ligatures:normal;font-variant-caps:normal;font-variant-numeric:normal;font-variant-east-asian:normal;fill:#000000;fill-opacity:1;stroke-width:0.755212">UniStack</tspan></text></svg>
